<svg xmlns="http://www.w3.org/2000/svg" version="1.1" xmlns:xlink="http://www.w3.org/1999/xlink" xmlns:svgjs="http://svgjs.com/svgjs" width="647.5" height="803"><svg id="SvgjsSvg1000" data-name="Layer 1" xmlns="http://www.w3.org/2000/svg" version="1.1" viewBox="0 0 647.5 803">
  <defs>
    <style>
      .cls-1 {
        fill-rule: evenodd;
      }

      .cls-1, .cls-2 {
        fill: #f7faff;
      }

      .cls-1, .cls-2, .cls-3 {
        stroke-width: 0px;
      }

      .cls-3 {
        fill: #fff;
      }

      .cls-4 {
        display: none;
      }
    </style>
  </defs>
  <g class="cls-4">
    <path class="cls-3" d="M395.2,0c15.6,3.7,31.6,6.4,46.8,11.4,147.3,47.7,239.5,148.6,277.7,297,28.7,111.5,9.7,217.4-54,313.9-48.3,73.2-115.1,123.7-196.8,154.7-50.2,19-102.3,27.9-155.9,25.8-76-2.9-146.1-25.2-209.5-67.2-86.5-57.4-142.9-136.5-168.9-236.9-11.8-45.7-14.3-92.3-8.8-139.2,11.3-95.9,50.8-178.4,117.9-247.5C99.1,55,166.7,19.8,244.3,3.7c5-1,10.1-1.9,15.2-2.9.3-.1.6.1,1.8.4-11.2,3.6-21.7,6.9-32.1,10.4C82.8,61.2-7.1,162.2-40.9,312.3c-19.4,86-9.4,169.9,30.1,249.2,44.8,90,114.9,152.3,209.1,187.5,46.4,17.3,94.5,25,143.9,22.8,72.7-3.2,139.4-25.5,199.2-66.8,72.3-49.8,121.3-117.1,147.1-201,13.5-44,18-89.1,15-135.1-5.5-84.8-34.9-160.5-87.3-227.3-41.8-53.3-95.1-91.6-157.3-117.5-19.6-8.1-40-14.2-60-21.2-1.4-.5-2.8-.9-4.2-1.3.1-.6.3-1.1.5-1.6Z"></path>
    <path class="cls-3" d="M410.3,14.6c38.3,11.9,74,28.6,106.8,51.1,88.9,61.1,142.5,145.7,163.1,250.9,15.3,78.3,8.4,154.9-25.6,227.7-44.1,94.8-116.7,158.7-215.4,192.6-50,17.2-101.7,22.7-154,15.2-140.3-20-237.6-96.6-292.9-226.5-20.8-49-27.4-100.8-24.5-153.8,3.8-70,24.1-134.7,61.3-194.1C72.9,107.7,133.9,58.1,210,26.8c9.5-3.9,19.2-7.4,28.8-11.1,1-.4,2.1-.6,3.3-.4-11.3,5.6-22.7,10.9-33.8,16.8-61.3,32.3-112.4,76.2-150.7,134.4C22.1,220.6,1,279.8-5.3,344.2c-7.9,81,7.8,156.8,51.5,225.7,52.8,83.2,128.3,134.3,225.3,151.7,75.1,13.5,146.9,1.3,213.8-35.7,90.8-50.3,146.6-127.1,169-228.2,8.5-38.5,9.1-77.5,5.2-116.7-7.9-79.4-38.7-149.1-89.3-210.2-40.3-48.6-90.9-83.8-147.7-110.7-4-1.9-8.1-3.7-12.2-5.5Z"></path>
    <path class="cls-3" d="M424.8,380.1c.2,44.1-12.2,72.1-31.8,97.2-12.8,16.4-27.5,30.6-44.5,42.7-13.3,9.4-26.1,9.8-39.7.7-30.2-20.3-54.5-46-68.9-79.6-19.9-46.6-11.8-90,18.7-129.7,10.9-14.3,24.4-25.8,39.6-35.5,16.4-10.5,33.6-11.6,50.3-2.8,47.5,24.9,73.7,64.3,76.3,107Z"></path>
  </g>
  <g>
    <path class="cls-1" d="M419.9,682.8c47.5-.3,93.7-16.2,131.7-45.3,94.8-72.6,133.1-219.6,51-317.3-69.6-82.8-194.9-72-247.2,18.2-18,31.1-21.7,83.8-24.6,118.8l56.4,52.7c-15.3-42.3-8.9-88.1,20.3-124.8,29.2-36.6,88.5-51,129.4-18.4s60.5,88.4,39.6,148.1-83.9,116.9-148.8,134.7l-7.8,33.3ZM33.2,522.9c11.6,65.7,42.6,132.1,101.3,168,58.6,35.9,150.9,21.2,163.6-57.3,9.2-56.7-12.8-104.8-67-123-31.6,12-75.6,24.8-105.6,2.2l33.8-59.6c25.8,8.1,54,2.7,74.9-14.6,37.1-30.7,19.8-86.5-20.8-103.6-41-17.3-94.9,10.3-87.3,59.5l-71.1,3.5c-1.9-57.6,34.4-109.5,89.2-127.4,54.8-17.9,114.8,2.6,147.2,50.2s29.4,111-7.3,155.4c78.8,26.4,126.3,106.7,111.7,188.5s-86.9,140.6-170,138.1c-74.3-2.1-139.6-49.1-178.3-110.6C13.2,637.5,1.4,569.9.4,506.3l32.8,16.6ZM371,48.6C371,21.9,349.3,0,322.5,0s-48.5,21.7-48.5,48.5,21.7,48.5,48.5,48.5,48.5-21.8,48.5-48.5ZM534,151c-117.1,121-283.5,123.2-367.6-22.2l27-17.3c104.3,108.5,209.7,60.9,267-6.7l73.6,46.2Z"></path>
    <g>
      <path class="cls-2" d="M383.1,495.3c.6,4.1,1.1,8.2,2.1,12.3l2.2,2.1c-1.8-4.8-3.1-9.6-4.3-14.4Z"></path>
      <path class="cls-2" d="M161.8,467.7c25.8,8.1,54,2.7,74.8-14.6,19.6-16.2,23.9-39.5,17.6-60.3,1,16.7-4.9,33.5-20.2,46.2-20.9,17.2-49.1,22.7-74.9,14.6l-33.7,59.5c2.5,1.9,5.1,3.4,7.8,4.8l28.6-50.2Z"></path>
      <path class="cls-2" d="M355.6,338.3c-18,31.1-21.7,83.8-24.6,118.8l3.4,3.2c2.9-34.3,7.4-79.8,23.7-107.8,52.2-90.1,177.5-100.9,247-18.2,20.7,24.7,33.8,52.5,40.2,81.6-5-34-18.6-67-42.7-95.7-69.5-82.8-194.8-72.1-247,18.1Z"></path>
      <path class="cls-2" d="M276.7,62.8c0-26.7,21.7-48.4,48.4-48.4s39.5,14.1,45.8,33.4c-.4-26.4-21.9-47.6-48.3-47.6s-48.4,21.7-48.4,48.4,1,10.3,2.6,15c0-.2-.1-.5-.1-.8Z"></path>
      <path class="cls-2" d="M430.2,663.5c65-17.8,127.8-75,148.8-134.7,9.7-27.4,10.6-53.9,5.1-77.7,2.4,20,.2,41.5-7.6,63.6-21,59.7-83.8,116.9-148.8,134.7l-7.8,33.2c2,0,4-.2,5.9-.3l4.4-18.8Z"></path>
      <path class="cls-2" d="M3.3,520.4l32.7,16.6c11.6,65.7,42.6,132,101.2,167.9,58.6,35.9,150.8,21.2,163.5-57.2,3.1-18.9,2.6-36.9-1.3-53.1,1.4,12.3,1,25.4-1.2,39-12.7,78.4-105,93.1-163.5,57.2-58.6-35.9-89.9-102.1-101.5-167.7L.7,506.7c.4,27,3,54.4,8.2,81.5-3.5-22.7-5.3-45.5-5.6-67.8Z"></path>
      <path class="cls-2" d="M196.2,125.7c104.2,108.4,209.6,60.8,266.9-6.7l63.3,39.7c2.6-2.5,5.2-5.1,7.8-7.7l-73.6-46.2c-57.3,67.6-162.7,115.1-266.9,6.7l-27,17.2c2.2,3.9,4.6,7.6,7,11.3l22.5-14.3Z"></path>
      <path class="cls-2" d="M146.3,284.7c54.8-17.9,114.7,2.6,147.2,50.2,9.3,13.5,15.5,28.4,19,43.7-2.4-20.3-9.5-40.1-21.5-57.8-32.4-47.6-92.2-67.6-146.9-49.8s-90.1,69.9-89.4,126.9l2.9-.2c3.9-51.7,38.6-96.6,88.7-113Z"></path>
    </g>
    <g>
      <path class="cls-1" d="M385.7,301c-11.6,10.4-21.9,22.7-30.3,37.2-18,31.1-21.7,83.8-24.6,118.8l56.4,52.7c-15.3-42.3-8.9-88.1,20.3-124.8,4.3-5.3,9.2-10.1,14.6-14.4-15.1-29.3-27.8-53.8-36.4-69.5Z"></path>
      <path class="cls-1" d="M530.6,585.8c-28.5,29.7-65.4,53.3-103.2,63.6l-7.8,33.2c47.5-.3,93.7-16.2,131.7-45.3,1.2-.9,2.3-1.8,3.4-2.8-6.9-14.4-15.1-30.9-24.1-48.7Z"></path>
    </g>
    <path class="cls-1" d="M184.3,708.4c-17.6-2.3-35.1-8.1-50.2-17.4-58.6-35.9-89.6-102.2-101.3-168L0,506.4c.9,63.6,12.8,131.3,47.1,185.9,38.6,61.6,104,108.5,178.3,110.6,4.9.2,9.8,0,14.6-.2-10.7-18.1-31.3-52.9-55.7-94.3Z"></path>
    <path class="cls-1" d="M371.1,48.5c0-26.7-21.7-48.5-48.5-48.5s-48.5,21.7-48.5,48.5,21.7,48.5,48.5,48.5,48.5-21.7,48.5-48.5Z"></path>
    <path class="cls-1" d="M310.2,174.9c-37.3-3.6-77.1-22.2-116.7-63.5l-27,17.3c35.7,61.8,86.3,96.8,141.7,107.5.7-19.2,1.4-41.8,2-61.3Z"></path>
  </g>
</svg><style>@media (prefers-color-scheme: light) { :root { filter: none; } }
</style></svg>